<!DOCTYPE svg PUBLIC "-//W3C//DTD SVG 1.1//EN" "http://www.w3.org/Graphics/SVG/1.1/DTD/svg11.dtd">
<!-- Uploaded to: SVG Repo, www.svgrepo.com, Transformed by: SVG Repo Mixer Tools -->
<svg fill="#ffffff" version="1.1" id="Capa_1" xmlns="http://www.w3.org/2000/svg" xmlns:xlink="http://www.w3.org/1999/xlink" width="800px" height="800px" viewBox="0 0 492.619 492.618" xml:space="preserve" stroke="#ffffff">
<g id="SVGRepo_bgCarrier" stroke-width="0"/>
<g id="SVGRepo_tracerCarrier" stroke-linecap="round" stroke-linejoin="round"/>
<g id="SVGRepo_iconCarrier"> <g> <g> <path d="M285.283,287.417c22.674-19.648,39.249-38.968,50.381-53.731c-59.782-4.945-96.715,0.928-96.715,0.928l0.487-2.575 c74.251-90.893,24.427-107.816,24.427-107.816c-56.524,80.465-151.996,131.492-151.996,131.492 c1.224,0.492,11.037,5.643-21.588,8.588C57.651,267.244,0,315.573,0,315.573c0,6.869,6.869,24.289,6.869,24.289 c-0.283,5.229,42.81,5.398,55.581,5.35c-2.284-5.674-3.573-11.865-3.573-18.354c0-27.23,22.153-49.388,49.396-49.388 s49.394,22.157,49.394,49.388c0,5.374-0.886,10.535-2.479,15.38h45.216C236.29,325.479,264.476,305.438,285.283,287.417z M196.101,242.951c2.779-2.292,22.406-22.405,22.406-22.405c0.165,3.597,9.327,15.701,9.327,15.701 C224.073,236.741,193.324,245.243,196.101,242.951z"/> <path d="M379.441,238.869c-8.956-1.373-17.496-2.464-25.768-3.392c-18.562,25.912-57.122,71.112-119.52,106.761h139.661 c-6.901-8.495-11.057-19.303-11.057-31.081c0-27.23,22.157-49.384,49.396-49.384s49.392,22.153,49.392,49.384 c0,6.977-1.471,13.602-4.092,19.628c13.77-4.363,26.333-14.879,26.333-14.879l-2.941-16.522l7.365-14.72 c2.444-6.708,1.964-20.947,1.964-20.947l2.444-15.043C492.619,248.682,464.491,251.943,379.441,238.869z"/> <path d="M108.281,285.31c-22.947,0-41.545,18.599-41.545,41.549c0,6.504,1.625,12.575,4.294,18.062 c6.734,13.854,20.814,23.476,37.251,23.476c17.498,0,32.406-10.841,38.523-26.157c1.897-4.769,3.011-9.934,3.011-15.38 C149.815,303.92,131.217,285.31,108.281,285.31z"/> <path d="M447.479,332.762c3.871-6.3,6.216-13.662,6.216-21.604c0-22.935-18.599-41.549-41.541-41.549 c-22.946,0-41.545,18.599-41.545,41.549c0,12.435,5.574,23.46,14.227,31.065c7.317,6.44,16.807,10.472,27.311,10.472 C427.149,352.694,440.173,344.676,447.479,332.762z"/> </g> </g> </g>
</svg>